<svg version="1.1" id="Layer_1" xmlns="http://www.w3.org/2000/svg" xmlns:xlink="http://www.w3.org/1999/xlink" x="0px" y="0px"
	 width="100%" viewBox="0 0 1200 1200" enable-background="new 0 0 1200 1200" xml:space="preserve">
<path fill="#1060D3" opacity="1.000000" stroke="none" 
	d="
M764.000000,1201.000000 
	C509.333344,1201.000000 255.166672,1201.000000 1.000000,1201.000000 
	C1.000000,801.000000 1.000000,401.000000 1.000000,1.000000 
	C401.000000,1.000000 801.000000,1.000000 1201.000000,1.000000 
	C1201.000000,401.000000 1201.000000,801.000000 1201.000000,1201.000000 
	C1055.500000,1201.000000 910.000000,1201.000000 764.000000,1201.000000 
M300.687134,933.532532 
	C302.524323,932.102478 304.441406,930.763245 306.186798,929.228760 
	C337.812134,901.424805 366.754517,871.071838 392.509521,837.742371 
	C395.351898,834.064026 398.246796,832.697327 402.894684,832.726257 
	C436.726654,832.937195 470.560577,832.839722 504.393860,832.839722 
	C506.160675,832.839722 507.927460,832.839783 510.384796,832.839783 
	C509.530182,834.517517 509.096771,835.538818 508.521698,836.472961 
	C484.491577,875.506470 465.528503,916.931580 450.585175,960.199646 
	C445.425415,975.139648 440.981720,990.334106 436.488586,1005.494629 
	C433.558319,1015.381775 437.590881,1022.613220 446.958649,1025.274902 
	C455.855469,1027.802856 463.118713,1023.443604 465.878082,1013.903198 
	C466.340637,1012.303894 466.708710,1010.677307 467.164978,1009.076111 
	C484.570099,947.998718 508.791687,889.987732 544.296875,837.009583 
	C546.426941,833.831238 548.606812,832.751587 552.357971,832.755554 
	C649.857788,832.860291 747.357727,832.856995 844.857544,832.770203 
	C848.461060,832.767029 851.068115,833.738953 853.660278,836.283630 
	C868.644775,850.993835 883.784119,865.546692 898.899353,880.123474 
	C906.120361,887.087158 915.539124,887.248840 922.003052,880.599731 
	C928.800110,873.608032 928.405212,865.713318 920.865479,858.211243 
	C918.857178,856.213074 916.704529,854.350037 914.799377,852.259766 
	C908.796692,845.673950 902.879944,839.009705 897.254089,832.737122 
	C919.837280,832.737122 943.678162,832.737122 968.433899,832.737122 
	C950.425842,806.199646 932.970459,780.476562 915.515015,754.753540 
	C915.882324,754.452820 916.249695,754.152161 916.617004,753.851501 
	C920.849731,757.009705 925.073792,760.179443 929.316711,763.323914 
	C945.378235,775.227539 961.370667,787.226501 977.539307,798.982910 
	C987.383728,806.140930 998.737305,800.825378 1000.287598,788.674744 
	C1001.156616,781.863220 998.732971,776.663635 993.254028,772.687866 
	C982.062927,764.567200 970.845398,756.480957 959.747498,748.234253 
	C950.984436,741.722534 942.383972,734.992065 933.554871,728.239075 
	C945.289795,711.002441 956.657654,694.305054 968.441589,676.996521 
	C965.637634,676.996521 963.824707,676.996460 962.011719,676.996460 
	C933.178406,676.996277 904.344604,677.067261 875.512634,676.870728 
	C873.004150,676.853577 869.981445,675.672302 868.095703,674.011719 
	C859.469727,666.415710 850.979980,658.643311 842.779541,650.589844 
	C822.784851,630.953796 803.532776,610.682129 788.500488,586.781433 
	C769.681580,556.860168 763.178101,525.065674 771.675842,490.253082 
	C777.364380,466.948914 786.078308,444.882263 796.427246,423.412018 
	C823.904907,366.405365 857.079163,312.740540 892.678101,260.519043 
	C894.929138,257.216919 897.244507,253.939117 899.219971,250.473297 
	C902.176270,245.286758 901.463318,240.175522 897.519287,235.750977 
	C889.786377,227.075836 877.816895,228.126480 870.939453,238.353195 
	C859.971375,254.662842 849.016907,270.987854 838.406372,287.530640 
	C807.258423,336.092957 778.492004,385.977020 755.580078,439.044098 
	C745.549377,462.276520 738.164429,486.238800 737.144592,511.741058 
	C735.776489,545.953308 746.742798,576.563843 764.776550,605.088806 
	C780.739929,630.338989 800.672485,652.229492 821.854248,673.085144 
	C822.920227,674.134705 823.958374,675.212463 825.435547,676.708740 
	C708.653992,676.708740 592.906311,676.708740 477.240356,676.708740 
	C479.050140,666.302612 481.297119,656.219788 482.489624,646.013733 
	C486.706757,609.921387 477.090210,578.298584 452.174408,551.264160 
	C435.275665,532.928528 415.747162,518.161133 394.689880,505.156738 
	C360.071075,483.777161 322.729553,468.228607 284.775757,454.041870 
	C263.563690,446.113007 242.255447,438.432617 220.889481,430.927948 
	C209.634186,426.974640 201.163925,433.562653 201.518845,445.480682 
	C201.746140,453.112762 205.454010,457.593079 214.237564,460.822418 
	C239.712097,470.188293 265.357208,479.118378 290.624298,489.013763 
	C328.673767,503.914978 365.901581,520.559875 399.199402,544.797913 
	C413.024445,554.861328 425.582458,566.330078 435.983582,579.851135 
	C451.398010,599.889343 455.530792,622.881653 451.477234,647.474060 
	C449.842285,657.392883 447.465088,667.189331 445.385925,677.233765 
	C374.458984,677.233765 304.575439,677.233765 234.061279,677.233765 
	C235.514420,679.453064 236.561615,681.108887 237.663834,682.727234 
	C253.131165,705.436157 268.548431,728.179688 284.150238,750.795898 
	C286.154572,753.701355 286.278625,755.592651 284.212982,758.592468 
	C268.346741,781.633606 252.697174,804.823975 236.994202,827.977417 
	C236.040817,829.383179 235.206299,830.869629 233.804993,833.151367 
	C275.134705,833.151367 315.338226,833.151367 356.812775,833.151367 
	C347.101074,844.116943 338.589752,854.584106 329.174957,864.163391 
	C313.762238,879.845337 297.754578,894.942322 282.013611,910.302124 
	C276.997406,915.196838 276.201874,921.955017 279.919403,927.496765 
	C284.662415,934.567200 291.778015,936.841919 300.687134,933.532532 
M708.280579,291.744995 
	C702.511597,300.108032 696.880615,308.570435 690.948547,316.816132 
	C670.520630,345.211151 650.481873,373.912628 623.832886,397.151367 
	C600.780640,417.253632 574.669800,428.891235 543.592896,429.184784 
	C519.151001,429.415649 495.523438,425.235413 472.274841,418.418274 
	C419.982178,403.084534 370.490448,380.845825 321.877502,356.555237 
	C302.812469,347.028961 284.089630,336.820190 265.106598,327.126526 
	C256.198914,322.577820 247.809906,325.363831 243.477188,333.795685 
	C239.266327,341.990448 241.532089,349.278625 250.255447,353.877472 
	C300.504364,380.368042 351.153046,406.035004 404.050171,426.949463 
	C443.166107,442.415039 482.813293,456.072418 525.150696,459.406403 
	C559.991577,462.150116 592.807983,455.705353 622.488464,436.378571 
	C643.535339,422.673584 660.739746,404.787231 676.577881,385.592651 
	C709.177734,346.084290 738.397217,304.139648 764.945496,260.358948 
	C777.031494,240.427902 788.570068,220.160553 800.115356,199.908066 
	C805.063721,191.227798 802.540588,182.661224 794.343994,178.102081 
	C786.213074,173.579453 778.654358,176.051239 773.416870,184.965256 
	C772.236145,186.974899 771.171692,189.054230 769.956848,191.042297 
	C749.557190,224.427902 729.142090,257.804138 708.280579,291.744995 
z"/>
<path fill="#F3E8E9" opacity="1.000000" stroke="none" 
	d="
M300.340088,933.723206 
	C291.778015,936.841919 284.662415,934.567200 279.919403,927.496765 
	C276.201874,921.955017 276.997406,915.196838 282.013611,910.302124 
	C297.754578,894.942322 313.762238,879.845337 329.174957,864.163391 
	C338.589752,854.584106 347.101074,844.116943 356.812775,833.151367 
	C315.338226,833.151367 275.134705,833.151367 233.804993,833.151367 
	C235.206299,830.869629 236.040817,829.383179 236.994202,827.977417 
	C252.697174,804.823975 268.346741,781.633606 284.212982,758.592468 
	C286.278625,755.592651 286.154572,753.701355 284.150238,750.795898 
	C268.548431,728.179688 253.131165,705.436157 237.663834,682.727234 
	C236.561615,681.108887 235.514420,679.453064 234.061279,677.233765 
	C304.575439,677.233765 374.458984,677.233765 445.385925,677.233765 
	C447.465088,667.189331 449.842285,657.392883 451.477234,647.474060 
	C455.530792,622.881653 451.398010,599.889343 435.983582,579.851135 
	C425.582458,566.330078 413.024445,554.861328 399.199402,544.797913 
	C365.901581,520.559875 328.673767,503.914978 290.624298,489.013763 
	C265.357208,479.118378 239.712097,470.188293 214.237564,460.822418 
	C205.454010,457.593079 201.746140,453.112762 201.518845,445.480682 
	C201.163925,433.562653 209.634186,426.974640 220.889481,430.927948 
	C242.255447,438.432617 263.563690,446.113007 284.775757,454.041870 
	C322.729553,468.228607 360.071075,483.777161 394.689880,505.156738 
	C415.747162,518.161133 435.275665,532.928528 452.174408,551.264160 
	C477.090210,578.298584 486.706757,609.921387 482.489624,646.013733 
	C481.297119,656.219788 479.050140,666.302612 477.240356,676.708740 
	C592.906311,676.708740 708.653992,676.708740 825.435547,676.708740 
	C823.958374,675.212463 822.920227,674.134705 821.854248,673.085144 
	C800.672485,652.229492 780.739929,630.338989 764.776550,605.088806 
	C746.742798,576.563843 735.776489,545.953308 737.144592,511.741058 
	C738.164429,486.238800 745.549377,462.276520 755.580078,439.044098 
	C778.492004,385.977020 807.258423,336.092957 838.406372,287.530640 
	C849.016907,270.987854 859.971375,254.662842 870.939453,238.353195 
	C877.816895,228.126480 889.786377,227.075836 897.519287,235.750977 
	C901.463318,240.175522 902.176270,245.286758 899.219971,250.473297 
	C897.244507,253.939117 894.929138,257.216919 892.678101,260.519043 
	C857.079163,312.740540 823.904907,366.405365 796.427246,423.412018 
	C786.078308,444.882263 777.364380,466.948914 771.675842,490.253082 
	C763.178101,525.065674 769.681580,556.860168 788.500488,586.781433 
	C803.532776,610.682129 822.784851,630.953796 842.779541,650.589844 
	C850.979980,658.643311 859.469727,666.415710 868.095703,674.011719 
	C869.981445,675.672302 873.004150,676.853577 875.512634,676.870728 
	C904.344604,677.067261 933.178406,676.996277 962.011719,676.996460 
	C963.824707,676.996460 965.637634,676.996521 968.441589,676.996521 
	C956.657654,694.305054 945.289795,711.002441 933.554871,728.239075 
	C942.383972,734.992065 950.984436,741.722534 959.747498,748.234253 
	C970.845398,756.480957 982.062927,764.567200 993.254028,772.687866 
	C998.732971,776.663635 1001.156616,781.863220 1000.287598,788.674744 
	C998.737305,800.825378 987.383728,806.140930 977.539307,798.982910 
	C961.370667,787.226501 945.378235,775.227539 929.316711,763.323914 
	C925.073792,760.179443 920.849731,757.009705 916.617004,753.851501 
	C916.249695,754.152161 915.882324,754.452820 915.515015,754.753540 
	C932.970459,780.476562 950.425842,806.199646 968.433899,832.737122 
	C943.678162,832.737122 919.837280,832.737122 897.254089,832.737122 
	C902.879944,839.009705 908.796692,845.673950 914.799377,852.259766 
	C916.704529,854.350037 918.857178,856.213074 920.865479,858.211243 
	C928.405212,865.713318 928.800110,873.608032 922.003052,880.599731 
	C915.539124,887.248840 906.120361,887.087158 898.899353,880.123474 
	C883.784119,865.546692 868.644775,850.993835 853.660278,836.283630 
	C851.068115,833.738953 848.461060,832.767029 844.857544,832.770203 
	C747.357727,832.856995 649.857788,832.860291 552.357971,832.755554 
	C548.606812,832.751587 546.426941,833.831238 544.296875,837.009583 
	C508.791687,889.987732 484.570099,947.998718 467.164978,1009.076111 
	C466.708710,1010.677307 466.340637,1012.303894 465.878082,1013.903198 
	C463.118713,1023.443604 455.855469,1027.802856 446.958649,1025.274902 
	C437.590881,1022.613220 433.558319,1015.381775 436.488586,1005.494629 
	C440.981720,990.334106 445.425415,975.139648 450.585175,960.199646 
	C465.528503,916.931580 484.491577,875.506470 508.521698,836.472961 
	C509.096771,835.538818 509.530182,834.517517 510.384796,832.839783 
	C507.927460,832.839783 506.160675,832.839722 504.393860,832.839722 
	C470.560577,832.839722 436.726654,832.937195 402.894684,832.726257 
	C398.246796,832.697327 395.351898,834.064026 392.509521,837.742371 
	C366.754517,871.071838 337.812134,901.424805 306.186798,929.228760 
	C304.441406,930.763245 302.524323,932.102478 300.340088,933.723206 
M600.062195,733.929199 
	C599.677979,730.062622 598.671509,726.609375 594.103638,725.901855 
	C589.213745,725.144409 585.840576,727.635071 584.320068,731.860168 
	C582.993958,735.545288 582.498047,739.606812 582.142822,743.547729 
	C581.366455,752.162781 580.919189,760.807373 580.324829,769.438965 
	C579.672791,778.907410 578.859497,788.367737 578.396057,797.845276 
	C578.067871,804.556213 580.359497,806.389099 587.065369,805.988403 
	C592.491028,805.664246 594.607178,801.782776 596.748047,797.737732 
	C602.652893,786.580566 608.488647,775.384460 614.593018,764.337097 
	C616.009827,761.773010 618.387634,759.739868 620.323303,757.462402 
	C621.066406,757.720398 621.809448,757.978333 622.552551,758.236267 
	C622.552551,761.917847 622.918701,765.644226 622.474792,769.271484 
	C621.606750,776.364807 619.895325,783.372375 619.340698,790.478394 
	C619.109863,793.435852 620.056702,797.707458 622.091431,799.277039 
	C624.143799,800.860291 628.851013,801.003357 631.246155,799.686951 
	C635.156006,797.538025 638.773132,794.142395 641.362122,790.462524 
	C645.847168,784.087769 649.363770,777.039062 653.474243,770.389038 
	C654.855652,768.154236 656.808105,766.272400 658.499512,764.229248 
	C659.005920,764.451660 659.512329,764.674072 660.018677,764.896484 
	C659.799255,768.788086 659.655029,772.685730 659.344666,776.570129 
	C658.710205,784.510010 657.705261,792.432190 657.409180,800.382446 
	C657.242554,804.857605 659.173523,808.581848 664.465881,809.037048 
	C669.362427,809.458130 673.558777,806.593140 674.938660,801.623169 
	C675.646362,799.074158 675.972229,796.395935 676.243469,793.752808 
	C677.450134,781.993469 678.756409,770.239624 679.653748,758.455322 
	C680.118835,752.347839 680.296570,746.134399 679.714966,740.053833 
	C679.073669,733.348206 673.478943,730.897827 667.616638,734.330017 
	C665.796082,735.395813 664.126953,736.946411 662.812988,738.610291 
	C658.274658,744.357239 654.019836,750.328735 649.463074,756.060425 
	C646.946655,759.225708 644.043274,762.083435 640.810364,765.633179 
	C639.755676,758.176270 639.378601,751.707153 637.853271,745.521179 
	C634.727234,732.843689 625.307983,730.287109 616.305298,739.722717 
	C611.507202,744.751648 607.635376,750.662354 603.318542,756.153992 
	C602.196838,757.580933 600.974304,758.928650 600.117188,759.937256 
	C600.117188,751.420593 600.117188,743.133179 600.062195,733.929199 
M327.136139,793.668335 
	C329.502136,783.867920 333.464691,776.910889 345.653503,776.562988 
	C358.182892,776.205383 358.031982,775.137390 360.008057,787.490906 
	C361.108551,794.370728 362.301086,801.282043 364.176208,807.976379 
	C365.578644,812.983032 368.714783,814.227539 373.438049,812.987793 
	C378.975647,811.534180 381.989288,807.852844 381.151337,803.164307 
	C380.185822,797.761963 378.833038,792.428833 377.867889,787.026367 
	C372.603729,757.560486 367.386475,728.086121 362.215393,698.603760 
	C361.620087,695.209595 361.097443,691.136536 357.206390,690.955200 
	C353.571503,690.785950 349.218353,691.779053 346.335663,693.859741 
	C343.631958,695.811279 342.006683,699.683716 340.673218,703.017334 
	C337.958038,709.804932 335.846313,716.830872 333.331787,723.702209 
	C324.069336,749.013184 314.670563,774.274536 305.489960,799.614990 
	C302.961487,806.594238 304.144714,809.877136 308.929962,811.719116 
	C314.393280,813.822144 318.881439,811.854736 321.860931,805.807739 
	C323.697174,802.080933 325.248016,798.213623 327.136139,793.668335 
M546.102295,807.719543 
	C548.549011,806.306824 551.152527,805.107483 553.415771,803.444946 
	C564.313416,795.439819 569.162415,784.302612 567.395874,771.205688 
	C565.726685,758.831055 557.591553,751.299622 545.587585,747.804565 
	C541.462280,746.603455 537.440613,744.893738 533.569641,743.009521 
	C528.398865,740.492615 524.886230,736.351257 523.323853,730.726196 
	C521.664856,724.753540 524.842407,718.850281 531.552734,715.331299 
	C537.611633,712.154053 541.566711,712.850342 546.008057,718.358215 
	C548.506287,721.456299 550.423340,725.016052 552.810242,728.212463 
	C556.435608,733.067505 561.312256,733.258423 564.617737,728.182129 
	C566.406006,725.435852 568.152710,721.384583 567.446228,718.534912 
	C565.439697,710.441467 561.982300,702.662354 554.489990,697.925781 
	C543.306885,690.855835 532.202637,691.569397 521.225708,698.789734 
	C508.561127,707.120178 502.068817,718.521973 503.763489,733.821167 
	C505.436646,748.926086 514.021790,758.647827 528.179382,763.748535 
	C532.711121,765.381348 537.320496,766.949097 541.580566,769.153137 
	C550.082703,773.552185 550.219116,783.762146 541.890137,788.639038 
	C539.670410,789.938843 536.959167,790.617004 534.384521,791.046570 
	C529.473694,791.865784 524.415161,791.921265 519.570740,792.987610 
	C512.906494,794.454407 510.325226,797.892273 510.938416,803.201904 
	C511.552460,808.518616 515.540405,812.322815 521.911743,811.813293 
	C529.787964,811.183472 537.565430,809.318542 546.102295,807.719543 
M848.935791,811.322510 
	C849.657410,808.609131 850.700256,805.935364 851.041504,803.174988 
	C852.123291,794.423157 852.975464,785.642273 853.855652,776.866516 
	C854.827393,767.177368 856.951904,757.938965 865.696350,752.140015 
	C868.150024,750.512817 871.594604,749.441406 874.399414,749.757751 
	C875.476196,749.879150 876.302979,754.540161 876.752625,757.215149 
	C877.161804,759.649536 876.962158,762.196472 876.933411,764.692627 
	C876.774414,778.507507 876.571838,792.321838 876.415833,806.136780 
	C876.370667,810.135559 877.380066,813.387817 882.100952,814.087097 
	C887.230347,814.846924 890.771851,813.079712 892.251648,808.286926 
	C893.123108,805.464355 893.620544,802.427185 893.688782,799.472778 
	C893.992371,786.328003 894.259216,773.177002 894.160645,760.031067 
	C894.119690,754.572876 893.617920,749.018127 892.481812,743.687134 
	C889.181091,728.198975 882.045105,725.098633 868.235840,732.527405 
	C865.632446,733.927795 862.678040,734.675781 858.945068,736.078125 
	C859.216187,732.680786 859.284729,730.730530 859.540405,728.805115 
	C860.676636,720.248718 862.128052,711.723816 862.931641,703.137634 
	C863.363220,698.525818 860.421692,695.780457 855.905396,694.884460 
	C851.311523,693.973083 847.892639,695.641235 846.419067,700.063477 
	C845.273804,703.500244 844.545654,707.131287 844.091248,710.734009 
	C841.074829,734.645996 838.100281,758.563965 835.295227,782.501465 
	C834.350525,790.563599 833.465454,798.693176 833.553528,806.781128 
	C833.582275,809.419617 836.222900,812.984192 838.668579,814.406616 
	C841.921814,816.298706 845.803406,815.213989 848.935791,811.322510 
M754.645447,760.018127 
	C754.038452,752.124390 754.201965,744.067688 752.578552,736.388794 
	C751.298523,730.334045 747.206177,724.523987 740.722229,723.293335 
	C726.027039,720.504089 713.803467,727.241760 702.596802,735.670898 
	C699.238342,738.196960 699.546814,742.655396 701.994934,746.153137 
	C704.276794,749.413330 707.541260,748.452698 710.566467,747.205872 
	C712.867798,746.257385 715.050415,745.017517 717.360901,744.095337 
	C721.058472,742.619568 724.738464,740.993042 728.572876,739.994751 
	C732.941162,738.857422 736.757507,742.176453 737.827087,747.464966 
	C738.799561,752.273315 737.034668,755.287964 732.219849,756.210205 
	C728.147034,756.990234 723.990479,757.396912 719.852661,757.760315 
	C712.538513,758.402649 705.880432,760.746338 699.993286,765.129944 
	C690.386047,772.283325 688.452820,784.513672 695.451172,792.630188 
	C703.916077,802.447510 714.844910,808.263184 727.052734,811.639465 
	C737.754517,814.599182 743.815063,810.757202 746.841125,800.079834 
	C746.976990,799.600342 747.080627,799.110474 747.175537,798.620789 
	C749.611938,786.054565 752.045227,773.487671 754.645447,760.018127 
M411.761108,739.261414 
	C410.958740,735.367188 409.331482,732.132141 404.707275,732.317932 
	C400.226288,732.498108 397.835571,735.462219 396.911194,739.519897 
	C396.213104,742.584290 395.892700,745.751038 395.608826,748.890686 
	C394.530273,760.820068 393.526550,772.756287 392.511841,784.691345 
	C392.032990,790.323669 391.457794,795.952698 391.184143,801.595703 
	C391.013031,805.123413 392.028961,808.326294 395.942535,809.429016 
	C399.786621,810.512207 402.850311,809.104797 404.941772,805.809082 
	C406.540955,803.289001 407.829041,800.573669 409.372223,798.015564 
	C416.233246,786.642090 423.002686,775.209106 430.120789,763.998047 
	C431.839905,761.290405 434.762573,759.346985 437.131805,757.052185 
	C437.726837,757.356506 438.321869,757.660828 438.916931,757.965149 
	C438.678497,763.185486 438.533386,768.412109 438.180969,773.624756 
	C437.575470,782.580505 436.879883,791.530701 436.140686,800.476562 
	C435.846771,804.033386 437.883972,805.636475 440.852356,806.511292 
	C447.667419,808.519775 453.880493,803.707092 454.163269,796.668396 
	C454.503204,788.207092 455.482513,779.770874 455.799927,771.309326 
	C456.146881,762.059692 457.194489,752.623718 455.847778,743.579956 
	C454.348572,733.512390 446.433929,730.624268 438.100677,736.651611 
	C431.996399,741.066833 426.923706,746.947693 421.585846,752.367004 
	C418.864044,755.130371 416.570679,758.315857 413.830841,761.614929 
	C413.077026,760.364197 412.638550,759.970154 412.621704,759.558838 
	C412.356293,753.081787 412.145142,746.602478 411.761108,739.261414 
M794.628662,792.286804 
	C791.204224,795.501038 787.313965,795.720215 783.011169,794.358337 
	C780.655640,793.612793 778.168335,793.065430 775.710388,792.912292 
	C771.903748,792.675171 768.776062,793.929321 767.796265,798.149292 
	C766.785950,802.500427 767.527710,806.344666 772.058105,808.101196 
	C776.063660,809.654175 780.244568,810.994263 784.469666,811.696228 
	C796.779114,813.741150 808.385132,807.572388 813.329651,796.755493 
	C818.130981,786.251953 815.365234,776.303467 804.983032,767.592285 
	C801.418396,764.601318 797.495667,762.040649 793.794495,759.207764 
	C790.735596,756.866516 787.045715,754.436401 789.047729,749.891479 
	C790.953796,745.564575 795.224854,745.610291 798.997192,746.731018 
	C803.245239,747.993042 807.282715,749.976257 811.388794,751.700562 
	C817.202881,754.142151 823.309814,750.567505 822.591919,744.403320 
	C822.218872,741.200745 819.974365,737.400085 817.389160,735.412476 
	C806.211304,726.818848 794.038574,727.332581 781.528381,732.625732 
	C766.483948,738.991089 764.885132,759.097656 776.657104,767.382141 
	C780.056152,769.774231 783.360046,772.308472 786.624451,774.882996 
	C789.619202,777.244995 792.761658,779.503662 795.363342,782.257263 
	C798.169922,785.227844 798.930664,788.679749 794.628662,792.286804 
M492.115845,748.790894 
	C493.779816,744.148315 492.617340,740.632935 487.982025,738.545532 
	C483.875244,736.696167 479.192261,737.833069 476.619843,741.952454 
	C474.903442,744.701111 473.621124,747.919006 472.975800,751.095764 
	C471.755127,757.104858 471.042725,763.224243 470.282074,769.318115 
	C468.965210,779.868591 467.505829,790.412292 466.620300,801.001831 
	C466.016510,808.222290 469.907013,811.002869 476.964630,809.189758 
	C483.685425,807.463074 485.554657,804.504456 486.334595,797.007996 
	C487.981232,781.181458 490.041870,765.398010 492.115845,748.790894 
M484.560333,708.994446 
	C482.728271,710.368164 480.539764,711.451416 479.136200,713.174194 
	C475.922760,717.118469 476.497406,722.231445 480.036896,724.692139 
	C483.200317,726.891602 488.962067,726.339966 492.692444,723.461731 
	C496.229614,720.732605 496.967316,717.112244 495.290924,713.221558 
	C493.411438,708.859436 489.664978,707.932739 484.560333,708.994446 
z"/>
<path fill="#F3E8E9" opacity="1.000000" stroke="none" 
	d="
M708.505493,291.463715 
	C729.142090,257.804138 749.557190,224.427902 769.956848,191.042297 
	C771.171692,189.054230 772.236145,186.974899 773.416870,184.965256 
	C778.654358,176.051239 786.213074,173.579453 794.343994,178.102081 
	C802.540588,182.661224 805.063721,191.227798 800.115356,199.908066 
	C788.570068,220.160553 777.031494,240.427902 764.945496,260.358948 
	C738.397217,304.139648 709.177734,346.084290 676.577881,385.592651 
	C660.739746,404.787231 643.535339,422.673584 622.488464,436.378571 
	C592.807983,455.705353 559.991577,462.150116 525.150696,459.406403 
	C482.813293,456.072418 443.166107,442.415039 404.050171,426.949463 
	C351.153046,406.035004 300.504364,380.368042 250.255447,353.877472 
	C241.532089,349.278625 239.266327,341.990448 243.477188,333.795685 
	C247.809906,325.363831 256.198914,322.577820 265.106598,327.126526 
	C284.089630,336.820190 302.812469,347.028961 321.877502,356.555237 
	C370.490448,380.845825 419.982178,403.084534 472.274841,418.418274 
	C495.523438,425.235413 519.151001,429.415649 543.592896,429.184784 
	C574.669800,428.891235 600.780640,417.253632 623.832886,397.151367 
	C650.481873,373.912628 670.520630,345.211151 690.948547,316.816132 
	C696.880615,308.570435 702.511597,300.108032 708.505493,291.463715 
z"/>
<path fill="#1462D3" opacity="1.000000" stroke="none" 
	d="
M600.089722,734.387451 
	C600.117188,743.133179 600.117188,751.420593 600.117188,759.937256 
	C600.974304,758.928650 602.196838,757.580933 603.318542,756.153992 
	C607.635376,750.662354 611.507202,744.751648 616.305298,739.722717 
	C625.307983,730.287109 634.727234,732.843689 637.853271,745.521179 
	C639.378601,751.707153 639.755676,758.176270 640.810364,765.633179 
	C644.043274,762.083435 646.946655,759.225708 649.463074,756.060425 
	C654.019836,750.328735 658.274658,744.357239 662.812988,738.610291 
	C664.126953,736.946411 665.796082,735.395813 667.616638,734.330017 
	C673.478943,730.897827 679.073669,733.348206 679.714966,740.053833 
	C680.296570,746.134399 680.118835,752.347839 679.653748,758.455322 
	C678.756409,770.239624 677.450134,781.993469 676.243469,793.752808 
	C675.972229,796.395935 675.646362,799.074158 674.938660,801.623169 
	C673.558777,806.593140 669.362427,809.458130 664.465881,809.037048 
	C659.173523,808.581848 657.242554,804.857605 657.409180,800.382446 
	C657.705261,792.432190 658.710205,784.510010 659.344666,776.570129 
	C659.655029,772.685730 659.799255,768.788086 660.018677,764.896484 
	C659.512329,764.674072 659.005920,764.451660 658.499512,764.229248 
	C656.808105,766.272400 654.855652,768.154236 653.474243,770.389038 
	C649.363770,777.039062 645.847168,784.087769 641.362122,790.462524 
	C638.773132,794.142395 635.156006,797.538025 631.246155,799.686951 
	C628.851013,801.003357 624.143799,800.860291 622.091431,799.277039 
	C620.056702,797.707458 619.109863,793.435852 619.340698,790.478394 
	C619.895325,783.372375 621.606750,776.364807 622.474792,769.271484 
	C622.918701,765.644226 622.552551,761.917847 622.552551,758.236267 
	C621.809448,757.978333 621.066406,757.720398 620.323303,757.462402 
	C618.387634,759.739868 616.009827,761.773010 614.593018,764.337097 
	C608.488647,775.384460 602.652893,786.580566 596.748047,797.737732 
	C594.607178,801.782776 592.491028,805.664246 587.065369,805.988403 
	C580.359497,806.389099 578.067871,804.556213 578.396057,797.845276 
	C578.859497,788.367737 579.672791,778.907410 580.324829,769.438965 
	C580.919189,760.807373 581.366455,752.162781 582.142822,743.547729 
	C582.498047,739.606812 582.993958,735.545288 584.320068,731.860168 
	C585.840576,727.635071 589.213745,725.144409 594.103638,725.901855 
	C598.671509,726.609375 599.677979,730.062622 600.089722,734.387451 
z"/>
<path fill="#1462D3" opacity="1.000000" stroke="none" 
	d="
M327.031555,794.038818 
	C325.248016,798.213623 323.697174,802.080933 321.860931,805.807739 
	C318.881439,811.854736 314.393280,813.822144 308.929962,811.719116 
	C304.144714,809.877136 302.961487,806.594238 305.489960,799.614990 
	C314.670563,774.274536 324.069336,749.013184 333.331787,723.702209 
	C335.846313,716.830872 337.958038,709.804932 340.673218,703.017334 
	C342.006683,699.683716 343.631958,695.811279 346.335663,693.859741 
	C349.218353,691.779053 353.571503,690.785950 357.206390,690.955200 
	C361.097443,691.136536 361.620087,695.209595 362.215393,698.603760 
	C367.386475,728.086121 372.603729,757.560486 377.867889,787.026367 
	C378.833038,792.428833 380.185822,797.761963 381.151337,803.164307 
	C381.989288,807.852844 378.975647,811.534180 373.438049,812.987793 
	C368.714783,814.227539 365.578644,812.983032 364.176208,807.976379 
	C362.301086,801.282043 361.108551,794.370728 360.008057,787.490906 
	C358.031982,775.137390 358.182892,776.205383 345.653503,776.562988 
	C333.464691,776.910889 329.502136,783.867920 327.031555,794.038818 
M339.212555,760.949524 
	C342.455963,760.870911 345.724304,761.014709 348.936035,760.653992 
	C352.468964,760.257324 354.118378,758.233887 353.412628,754.435486 
	C352.260437,748.233887 351.392273,741.979553 350.244812,735.777039 
	C349.980408,734.347961 349.070343,733.038391 347.841125,730.301758 
	C343.200989,740.897705 340.179535,750.263855 339.212555,760.949524 
z"/>
<path fill="#1462D3" opacity="1.000000" stroke="none" 
	d="
M545.743896,807.853394 
	C537.565430,809.318542 529.787964,811.183472 521.911743,811.813293 
	C515.540405,812.322815 511.552460,808.518616 510.938416,803.201904 
	C510.325226,797.892273 512.906494,794.454407 519.570740,792.987610 
	C524.415161,791.921265 529.473694,791.865784 534.384521,791.046570 
	C536.959167,790.617004 539.670410,789.938843 541.890137,788.639038 
	C550.219116,783.762146 550.082703,773.552185 541.580566,769.153137 
	C537.320496,766.949097 532.711121,765.381348 528.179382,763.748535 
	C514.021790,758.647827 505.436646,748.926086 503.763489,733.821167 
	C502.068817,718.521973 508.561127,707.120178 521.225708,698.789734 
	C532.202637,691.569397 543.306885,690.855835 554.489990,697.925781 
	C561.982300,702.662354 565.439697,710.441467 567.446228,718.534912 
	C568.152710,721.384583 566.406006,725.435852 564.617737,728.182129 
	C561.312256,733.258423 556.435608,733.067505 552.810242,728.212463 
	C550.423340,725.016052 548.506287,721.456299 546.008057,718.358215 
	C541.566711,712.850342 537.611633,712.154053 531.552734,715.331299 
	C524.842407,718.850281 521.664856,724.753540 523.323853,730.726196 
	C524.886230,736.351257 528.398865,740.492615 533.569641,743.009521 
	C537.440613,744.893738 541.462280,746.603455 545.587585,747.804565 
	C557.591553,751.299622 565.726685,758.831055 567.395874,771.205688 
	C569.162415,784.302612 564.313416,795.439819 553.415771,803.444946 
	C551.152527,805.107483 548.549011,806.306824 545.743896,807.853394 
z"/>
<path fill="#1462D3" opacity="1.000000" stroke="none" 
	d="
M848.710449,811.640869 
	C845.803406,815.213989 841.921814,816.298706 838.668579,814.406616 
	C836.222900,812.984192 833.582275,809.419617 833.553528,806.781128 
	C833.465454,798.693176 834.350525,790.563599 835.295227,782.501465 
	C838.100281,758.563965 841.074829,734.645996 844.091248,710.734009 
	C844.545654,707.131287 845.273804,703.500244 846.419067,700.063477 
	C847.892639,695.641235 851.311523,693.973083 855.905396,694.884460 
	C860.421692,695.780457 863.363220,698.525818 862.931641,703.137634 
	C862.128052,711.723816 860.676636,720.248718 859.540405,728.805115 
	C859.284729,730.730530 859.216187,732.680786 858.945068,736.078125 
	C862.678040,734.675781 865.632446,733.927795 868.235840,732.527405 
	C882.045105,725.098633 889.181091,728.198975 892.481812,743.687134 
	C893.617920,749.018127 894.119690,754.572876 894.160645,760.031067 
	C894.259216,773.177002 893.992371,786.328003 893.688782,799.472778 
	C893.620544,802.427185 893.123108,805.464355 892.251648,808.286926 
	C890.771851,813.079712 887.230347,814.846924 882.100952,814.087097 
	C877.380066,813.387817 876.370667,810.135559 876.415833,806.136780 
	C876.571838,792.321838 876.774414,778.507507 876.933411,764.692627 
	C876.962158,762.196472 877.161804,759.649536 876.752625,757.215149 
	C876.302979,754.540161 875.476196,749.879150 874.399414,749.757751 
	C871.594604,749.441406 868.150024,750.512817 865.696350,752.140015 
	C856.951904,757.938965 854.827393,767.177368 853.855652,776.866516 
	C852.975464,785.642273 852.123291,794.423157 851.041504,803.174988 
	C850.700256,805.935364 849.657410,808.609131 848.710449,811.640869 
z"/>
<path fill="#1462D3" opacity="1.000000" stroke="none" 
	d="
M754.562256,760.469482 
	C752.045227,773.487671 749.611938,786.054565 747.175537,798.620789 
	C747.080627,799.110474 746.976990,799.600342 746.841125,800.079834 
	C743.815063,810.757202 737.754517,814.599182 727.052734,811.639465 
	C714.844910,808.263184 703.916077,802.447510 695.451172,792.630188 
	C688.452820,784.513672 690.386047,772.283325 699.993286,765.129944 
	C705.880432,760.746338 712.538513,758.402649 719.852661,757.760315 
	C723.990479,757.396912 728.147034,756.990234 732.219849,756.210205 
	C737.034668,755.287964 738.799561,752.273315 737.827087,747.464966 
	C736.757507,742.176453 732.941162,738.857422 728.572876,739.994751 
	C724.738464,740.993042 721.058472,742.619568 717.360901,744.095337 
	C715.050415,745.017517 712.867798,746.257385 710.566467,747.205872 
	C707.541260,748.452698 704.276794,749.413330 701.994934,746.153137 
	C699.546814,742.655396 699.238342,738.196960 702.596802,735.670898 
	C713.803467,727.241760 726.027039,720.504089 740.722229,723.293335 
	C747.206177,724.523987 751.298523,730.334045 752.578552,736.388794 
	C754.201965,744.067688 754.038452,752.124390 754.562256,760.469482 
M712.104004,785.301941 
	C712.722351,785.856995 713.271484,786.526306 713.969971,786.948914 
	C719.139648,790.076843 725.008789,793.887573 730.652832,791.429932 
	C736.012756,789.095947 734.541809,782.123169 735.384644,776.977112 
	C735.411438,776.813599 735.395142,776.643127 735.419922,776.479065 
	C735.884583,773.405151 734.275391,771.969116 731.467468,772.189636 
	C726.018555,772.617676 720.444885,772.757446 715.193604,774.086243 
	C708.019165,775.901733 707.444763,778.397827 712.104004,785.301941 
z"/>
<path fill="#1462D3" opacity="1.000000" stroke="none" 
	d="
M411.841309,739.692566 
	C412.145142,746.602478 412.356293,753.081787 412.621704,759.558838 
	C412.638550,759.970154 413.077026,760.364197 413.830841,761.614929 
	C416.570679,758.315857 418.864044,755.130371 421.585846,752.367004 
	C426.923706,746.947693 431.996399,741.066833 438.100677,736.651611 
	C446.433929,730.624268 454.348572,733.512390 455.847778,743.579956 
	C457.194489,752.623718 456.146881,762.059692 455.799927,771.309326 
	C455.482513,779.770874 454.503204,788.207092 454.163269,796.668396 
	C453.880493,803.707092 447.667419,808.519775 440.852356,806.511292 
	C437.883972,805.636475 435.846771,804.033386 436.140686,800.476562 
	C436.879883,791.530701 437.575470,782.580505 438.180969,773.624756 
	C438.533386,768.412109 438.678497,763.185486 438.916931,757.965149 
	C438.321869,757.660828 437.726837,757.356506 437.131805,757.052185 
	C434.762573,759.346985 431.839905,761.290405 430.120789,763.998047 
	C423.002686,775.209106 416.233246,786.642090 409.372223,798.015564 
	C407.829041,800.573669 406.540955,803.289001 404.941772,805.809082 
	C402.850311,809.104797 399.786621,810.512207 395.942535,809.429016 
	C392.028961,808.326294 391.013031,805.123413 391.184143,801.595703 
	C391.457794,795.952698 392.032990,790.323669 392.511841,784.691345 
	C393.526550,772.756287 394.530273,760.820068 395.608826,748.890686 
	C395.892700,745.751038 396.213104,742.584290 396.911194,739.519897 
	C397.835571,735.462219 400.226288,732.498108 404.707275,732.317932 
	C409.331482,732.132141 410.958740,735.367188 411.841309,739.692566 
z"/>
<path fill="#1462D3" opacity="1.000000" stroke="none" 
	d="
M794.902100,792.031372 
	C798.930664,788.679749 798.169922,785.227844 795.363342,782.257263 
	C792.761658,779.503662 789.619202,777.244995 786.624451,774.882996 
	C783.360046,772.308472 780.056152,769.774231 776.657104,767.382141 
	C764.885132,759.097656 766.483948,738.991089 781.528381,732.625732 
	C794.038574,727.332581 806.211304,726.818848 817.389160,735.412476 
	C819.974365,737.400085 822.218872,741.200745 822.591919,744.403320 
	C823.309814,750.567505 817.202881,754.142151 811.388794,751.700562 
	C807.282715,749.976257 803.245239,747.993042 798.997192,746.731018 
	C795.224854,745.610291 790.953796,745.564575 789.047729,749.891479 
	C787.045715,754.436401 790.735596,756.866516 793.794495,759.207764 
	C797.495667,762.040649 801.418396,764.601318 804.983032,767.592285 
	C815.365234,776.303467 818.130981,786.251953 813.329651,796.755493 
	C808.385132,807.572388 796.779114,813.741150 784.469666,811.696228 
	C780.244568,810.994263 776.063660,809.654175 772.058105,808.101196 
	C767.527710,806.344666 766.785950,802.500427 767.796265,798.149292 
	C768.776062,793.929321 771.903748,792.675171 775.710388,792.912292 
	C778.168335,793.065430 780.655640,793.612793 783.011169,794.358337 
	C787.313965,795.720215 791.204224,795.501038 794.902100,792.031372 
z"/>
<path fill="#1463D3" opacity="1.000000" stroke="none" 
	d="
M492.024231,749.193909 
	C490.041870,765.398010 487.981232,781.181458 486.334595,797.007996 
	C485.554657,804.504456 483.685425,807.463074 476.964630,809.189758 
	C469.907013,811.002869 466.016510,808.222290 466.620300,801.001831 
	C467.505829,790.412292 468.965210,779.868591 470.282074,769.318115 
	C471.042725,763.224243 471.755127,757.104858 472.975800,751.095764 
	C473.621124,747.919006 474.903442,744.701111 476.619843,741.952454 
	C479.192261,737.833069 483.875244,736.696167 487.982025,738.545532 
	C492.617340,740.632935 493.779816,744.148315 492.024231,749.193909 
z"/>
<path fill="#1664D4" opacity="1.000000" stroke="none" 
	d="
M484.926025,708.905518 
	C489.664978,707.932739 493.411438,708.859436 495.290924,713.221558 
	C496.967316,717.112244 496.229614,720.732605 492.692444,723.461731 
	C488.962067,726.339966 483.200317,726.891602 480.036896,724.692139 
	C476.497406,722.231445 475.922760,717.118469 479.136200,713.174194 
	C480.539764,711.451416 482.728271,710.368164 484.926025,708.905518 
z"/>
<path fill="#EDE4E8" opacity="1.000000" stroke="none" 
	d="
M339.042236,760.559692 
	C340.179535,750.263855 343.200989,740.897705 347.841125,730.301758 
	C349.070343,733.038391 349.980408,734.347961 350.244812,735.777039 
	C351.392273,741.979553 352.260437,748.233887 353.412628,754.435486 
	C354.118378,758.233887 352.468964,760.257324 348.936035,760.653992 
	C345.724304,761.014709 342.455963,760.870911 339.042236,760.559692 
z"/>
<path fill="#EFE5E8" opacity="1.000000" stroke="none" 
	d="
M711.843872,785.036011 
	C707.444763,778.397827 708.019165,775.901733 715.193604,774.086243 
	C720.444885,772.757446 726.018555,772.617676 731.467468,772.189636 
	C734.275391,771.969116 735.884583,773.405151 735.419922,776.479065 
	C735.395142,776.643127 735.411438,776.813599 735.384644,776.977112 
	C734.541809,782.123169 736.012756,789.095947 730.652832,791.429932 
	C725.008789,793.887573 719.139648,790.076843 713.969971,786.948914 
	C713.271484,786.526306 712.722351,785.856995 711.843872,785.036011 
z"/>
</svg>