<?xml version="1.0" encoding="UTF-8"?>
<svg enable-background="new 0 0 1200 1200" version="1.1" viewBox="0 0 1200 1200" xml:space="preserve" xmlns="http://www.w3.org/2000/svg">
<path d="m764 1201h-763v-1200h1200v1200h-437m-463.31-267.47c1.8372-1.4301 3.7543-2.7693 5.4997-4.3038 31.625-27.804 60.568-58.157 86.323-91.486 2.8424-3.6783 5.7373-5.045 10.385-5.0161 33.832 0.21094 67.666 0.11346 101.5 0.11346 1.7668 0 3.5336 6.1e-5 5.9909 6.1e-5 -0.85461 1.6777-1.288 2.699-1.8631 3.6332-24.03 39.034-42.993 80.459-57.937 123.73-5.1598 14.94-9.6035 30.134-14.097 45.295-2.9303 9.8871 1.1023 17.119 10.47 19.78 8.8968 2.528 16.16-1.8313 18.919-11.372 0.46256-1.5993 0.83063-3.2259 1.2869-4.8271 17.405-61.077 41.627-119.09 77.132-172.07 2.1301-3.1783 4.3099-4.258 8.0611-4.254 97.5 0.10474 195 0.10144 292.5 0.014649 3.6035-0.003174 6.2106 0.96875 8.8027 3.5134 14.984 14.71 30.124 29.263 45.239 43.84 7.221 6.9637 16.64 7.1254 23.104 0.47626 6.7971-6.9917 6.4022-14.886-1.1376-22.388-2.0083-1.9982-4.161-3.8612-6.0661-5.9515-6.0027-6.5858-11.919-13.25-17.545-19.523h71.18c-18.008-26.537-35.463-52.261-52.919-77.984 0.36731-0.30072 0.73468-0.60138 1.102-0.90204 4.2327 3.1582 8.4568 6.3279 12.7 9.4724 16.062 11.904 32.054 23.903 48.223 35.659 9.8444 7.158 21.198 1.8425 22.748-10.308 0.86902-6.8115-1.5546-12.011-7.0336-15.987-11.191-8.1207-22.409-16.207-33.507-24.454-8.7631-6.5117-17.364-13.242-26.193-19.995 11.735-17.237 23.103-33.934 34.887-51.243-2.804 0-4.6169-6.1e-5 -6.4299-6.1e-5 -28.833-1.83e-4 -57.667 0.070801-86.499-0.12573-2.5085-0.017151-5.5312-1.1984-7.4169-2.859-8.626-7.596-17.116-15.368-25.316-23.422-19.995-19.636-39.247-39.908-54.279-63.808-18.819-29.921-25.322-61.716-16.825-96.528 5.6885-23.304 14.402-45.371 24.751-66.841 27.478-57.007 60.652-110.67 96.251-162.89 2.251-3.3021 4.5664-6.5799 6.5419-10.046 2.9563-5.1865 2.2433-10.298-1.7007-14.722-7.7329-8.6751-19.702-7.6245-26.58 2.6022-10.968 16.31-21.923 32.635-32.533 49.177-31.148 48.562-59.914 98.446-82.826 151.51-10.031 23.232-17.416 47.195-18.435 72.697-1.3681 34.212 9.5982 64.823 27.632 93.348 15.963 25.25 35.896 47.141 57.078 67.996 1.066 1.0496 2.1041 2.1273 3.5813 3.6236h-348.2c1.8098-10.406 4.0568-20.489 5.2493-30.695 4.2171-36.092-5.3994-67.715-30.315-94.75-16.899-18.336-36.427-33.103-57.485-46.107-34.619-21.38-71.96-36.928-109.91-51.115-21.212-7.9289-42.52-15.609-63.886-23.114-11.255-3.9533-19.726 2.6347-19.371 14.553 0.2273 7.6321 3.9352 12.112 12.719 15.342 25.475 9.3659 51.12 18.296 76.387 28.191 38.049 14.901 75.277 31.546 108.58 55.784 13.825 10.063 26.383 21.532 36.784 35.053 15.414 20.038 19.547 43.031 15.494 67.623-1.6349 9.9188-4.0121 19.715-6.0913 29.76h-211.32c1.4531 2.2193 2.5003 3.8751 3.6026 5.4935 15.467 22.709 30.885 45.452 46.486 68.069 2.0043 2.9055 2.1284 4.7968 0.062744 7.7966-15.866 23.041-31.516 46.232-47.219 69.385-0.95338 1.4058-1.7879 2.8922-3.1892 5.174h123.01c-9.7117 10.966-18.223 21.433-27.638 31.012-15.413 15.682-31.42 30.779-47.161 46.139-5.0162 4.8947-5.8117 11.653-2.0942 17.195 4.743 7.0704 11.859 9.3452 20.768 6.0358m407.59-641.79c-5.769 8.363-11.4 16.825-17.332 25.071-20.428 28.395-40.467 57.096-67.116 80.335-23.052 20.102-49.163 31.74-80.24 32.033-24.442 0.23086-48.069-3.9494-71.318-10.767-52.293-15.334-101.78-37.572-150.4-61.863-19.065-9.5263-37.788-19.735-56.771-29.429-8.9077-4.5487-17.297-1.7627-21.629 6.6692-4.2109 8.1948-1.9451 15.483 6.7783 20.082 50.249 26.491 100.9 52.158 153.79 73.072 39.116 15.466 78.763 29.123 121.1 32.457 34.841 2.7437 67.657-3.701 97.338-23.028 21.047-13.705 38.251-31.591 54.089-50.786 32.6-39.508 61.819-81.453 88.368-125.23 12.086-19.931 23.625-40.198 35.17-60.451 4.9484-8.6803 2.4252-17.247-5.7714-21.806-8.1309-4.5226-15.69-2.0508-20.927 6.8632-1.1807 2.0096-2.2452 4.089-3.46 6.077-20.4 33.386-40.815 66.762-61.676 100.7z" fill="#1060D3"/>
<path d="m300.34 933.72c-8.5621 3.1187-15.678 0.84399-20.421-6.2264-3.7175-5.5417-2.922-12.3 2.0942-17.195 15.741-15.36 31.749-30.457 47.161-46.139 9.4148-9.5793 17.926-20.046 27.638-31.012h-123.01c1.4013-2.2817 2.2358-3.7682 3.1892-5.174 15.703-23.153 31.353-46.344 47.219-69.385 2.0656-2.9998 1.9416-4.8911-0.062744-7.7966-15.602-22.616-31.019-45.36-46.486-68.069-1.1022-1.6183-2.1494-3.2742-3.6026-5.4935h211.32c2.0792-10.044 4.4564-19.841 6.0913-29.76 4.0536-24.592-0.079224-47.585-15.494-67.623-10.401-13.521-22.959-24.99-36.784-35.053-33.298-24.238-70.526-40.883-108.58-55.784-25.267-9.8954-50.912-18.825-76.387-28.191-8.7836-3.2293-12.491-7.7097-12.719-15.342-0.35492-11.918 8.1153-18.506 19.371-14.553 21.366 7.5047 42.674 15.185 63.886 23.114 37.954 14.187 75.295 29.735 109.91 51.115 21.057 13.004 40.586 27.772 57.485 46.107 24.916 27.034 34.532 58.657 30.315 94.75-1.1925 10.206-3.4395 20.289-5.2493 30.695h348.2c-1.4772-1.4963-2.5153-2.574-3.5813-3.6236-21.182-20.856-41.114-42.746-57.078-67.996-18.034-28.525-29-59.135-27.632-93.348 1.0198-25.502 8.4048-49.465 18.435-72.697 22.912-53.067 51.678-102.95 82.826-151.51 10.611-16.543 21.565-32.868 32.533-49.177 6.8774-10.227 18.847-11.277 26.58-2.6022 3.944 4.4245 4.657 9.5358 1.7007 14.722-1.9755 3.4658-4.2908 6.7436-6.5419 10.046-35.599 52.221-68.773 105.89-96.251 162.89-10.349 21.47-19.063 43.537-24.751 66.841-8.4977 34.813-1.9943 66.607 16.825 96.528 15.032 23.901 34.284 44.172 54.279 63.808 8.2004 8.0535 16.69 15.826 25.316 23.422 1.8857 1.6606 4.9084 2.8419 7.4169 2.859 28.832 0.19653 57.666 0.12555 86.499 0.12573 1.813 0 3.6259 6.1e-5 6.4299 6.1e-5 -11.784 17.309-23.152 34.006-34.887 51.243 8.8291 6.753 17.43 13.483 26.193 19.995 11.098 8.2467 22.315 16.333 33.507 24.454 5.4789 3.9758 7.9026 9.1754 7.0336 15.987-1.5503 12.151-12.904 17.466-22.748 10.308-16.169-11.756-32.161-23.755-48.223-35.659-4.2429-3.1445-8.467-6.3142-12.7-9.4724-0.36731 0.30066-0.73468 0.60132-1.102 0.90204 17.455 25.723 34.911 51.446 52.919 77.984h-71.18c5.6259 6.2726 11.543 12.937 17.545 19.523 1.9052 2.0903 4.0578 3.9533 6.0661 5.9515 7.5397 7.5021 7.9346 15.397 1.1376 22.388-6.4639 6.6491-15.883 6.4874-23.104-0.47626-15.115-14.577-30.255-29.13-45.239-43.84-2.5922-2.5447-5.1992-3.5166-8.8027-3.5134-97.5 0.086792-195 0.090088-292.5-0.014649-3.7512-0.003967-5.931 1.0757-8.0611 4.254-35.505 52.978-59.727 110.99-77.132 172.07-0.45627 1.6012-0.82434 3.2278-1.2869 4.8271-2.7594 9.5404-10.023 13.9-18.919 11.372-9.3678-2.6617-13.4-9.8931-10.47-19.78 4.4931-15.161 8.9368-30.355 14.097-45.295 14.943-43.268 33.906-84.693 57.937-123.73 0.57507-0.93414 1.0085-1.9554 1.8631-3.6332-2.4573 0-4.2241-6.1e-5 -5.9909-6.1e-5 -33.833 0-67.667 0.097473-101.5-0.11346-4.6479-0.02893-7.5428 1.3378-10.385 5.0161-25.755 33.329-54.697 63.682-86.323 91.486-1.7454 1.5345-3.6625 2.8737-5.8467 4.4944m299.72-199.79c-0.38422-3.8666-1.3907-7.3198-5.9586-8.0273-4.8899-0.75745-8.2631 1.7332-9.7836 5.9583-1.3261 3.6851-1.822 7.7466-2.1772 11.688-0.77637 8.6151-1.2236 17.26-1.818 25.891-0.65204 9.4684-1.4653 18.929-1.9288 28.406-0.32819 6.7109 1.9634 8.5438 8.6693 8.1431 5.4257-0.32416 7.5418-4.2056 9.6827-8.2507 5.9048-11.157 11.741-22.353 17.845-33.401 1.4168-2.5641 3.7946-4.5972 5.7303-6.8747 0.7431 0.258 1.4861 0.51593 2.2292 0.77386 0 3.6816 0.36615 7.408-0.077759 11.035-0.86804 7.0933-2.5795 14.101-3.1341 21.207-0.23084 2.9575 0.716 7.2291 2.7507 8.7986 2.0524 1.5833 6.7596 1.7263 9.1547 0.40991 3.9099-2.1489 7.527-5.5446 10.116-9.2244 4.485-6.3748 8.0016-13.423 12.112-20.073 1.3814-2.2348 3.3339-4.1166 5.0253-6.1598 0.50641 0.22241 1.0128 0.44482 1.5192 0.66724-0.21942 3.8916-0.36365 7.7892-0.67401 11.674-0.63446 7.9399-1.6394 15.862-1.9355 23.812-0.16663 4.4752 1.7643 8.1994 7.0567 8.6546 4.8965 0.42108 9.0929-2.4439 10.473-7.4139 0.7077-2.549 1.0336-5.2272 1.3048-7.8704 1.2067-11.759 2.5129-23.513 3.4103-35.297 0.46509-6.1075 0.64282-12.321 0.061218-18.401-0.6413-6.7056-6.236-9.156-12.098-5.7238-1.8206 1.0658-3.4897 2.6164-4.8036 4.2803-4.5383 5.7469-8.7932 11.718-13.35 17.45-2.5164 3.1653-5.4198 6.023-8.6527 9.5728-1.0547-7.4569-1.4318-13.926-2.9571-20.112-3.126-12.677-12.545-15.234-21.548-5.7985-4.7981 5.0289-8.6699 10.94-12.987 16.431-1.1217 1.4269-2.3442 2.7747-3.2014 3.7833 0-8.5167 0-16.804-0.054993-26.008m-272.93 59.739c2.366-9.8004 6.3286-16.757 18.517-17.105 12.529-0.3576 12.378-1.4256 14.355 10.928 1.1005 6.8798 2.293 13.791 4.1682 20.485 1.4024 5.0067 4.5386 6.2512 9.2618 5.0114 5.5376-1.4536 8.5512-5.1349 7.7133-9.8235-0.96552-5.4023-2.3183-10.735-3.2834-16.138-5.2642-29.466-10.481-58.94-15.652-88.423-0.59531-3.3942-1.118-7.4672-5.009-7.6486-3.6349-0.16925-7.988 0.82385-10.871 2.9045-2.7037 1.9515-4.329 5.824-5.6624 9.1576-2.7152 6.7876-4.8269 13.814-7.3414 20.685-9.2625 25.311-18.661 50.572-27.842 75.913-2.5285 6.9792-1.3452 10.262 3.44 12.104 5.4633 2.103 9.9515 0.13562 12.931-5.9114 1.8362-3.7268 3.3871-7.5941 5.2752-12.139m218.97 14.051c2.4467-1.4127 5.0502-2.6121 7.3135-4.2746 10.898-8.0051 15.747-19.142 13.98-32.239-1.6692-12.375-9.8043-19.906-21.808-23.401-4.1253-1.2011-8.147-2.9108-12.018-4.795-5.1708-2.5169-8.6834-6.6583-10.246-12.283-1.659-5.9727 1.5186-11.876 8.2289-15.395 6.0589-3.1772 10.014-2.481 14.455 3.0269 2.4982 3.0981 4.4153 6.6578 6.8022 9.8542 3.6254 4.855 8.502 5.046 11.807-0.030334 1.7883-2.7463 3.535-6.7975 2.8285-9.6472-2.0065-8.0934-5.4639-15.873-12.956-20.609-11.183-7.0699-22.287-6.3564-33.264 0.86395-12.665 8.3304-19.157 19.732-17.462 35.031 1.6732 15.105 10.258 24.827 24.416 29.927 4.5317 1.6328 9.1411 3.2006 13.401 5.4046 8.5021 4.399 8.6386 14.609 0.30957 19.486-2.2197 1.2998-4.931 1.978-7.5056 2.4075-4.9108 0.81921-9.9694 0.8747-14.814 1.941-6.6642 1.4668-9.2455 4.9047-8.6323 10.214 0.61404 5.3167 4.602 9.1209 10.973 8.6114 7.8762-0.62982 15.654-2.4948 24.191-4.0938m302.83 3.603c0.72162-2.7134 1.7645-5.3871 2.1057-8.1475 1.0818-8.7518 1.934-17.533 2.8141-26.308 0.97174-9.6891 3.0963-18.928 11.841-24.727 2.4537-1.6272 5.8983-2.6986 8.7031-2.3823 1.0768 0.1214 1.9036 4.7824 2.3532 7.4574 0.40918 2.4344 0.20953 4.9813 0.18079 7.4775-0.159 13.815-0.36157 27.629-0.51758 41.444-0.045166 3.9988 0.96423 7.251 5.6851 7.9503 5.1294 0.75983 8.6709-1.0074 10.151-5.8002 0.87146-2.8226 1.3689-5.8597 1.4371-8.8141 0.30359-13.145 0.57043-26.296 0.47186-39.442-0.040955-5.4582-0.54272-11.013-1.6788-16.344-3.3007-15.488-10.437-18.589-24.246-11.16-2.6034 1.4004-5.5578 2.1484-9.2908 3.5507 0.27112-3.3973 0.33966-5.3476 0.59534-7.273 1.1362-8.5564 2.5876-17.081 3.3912-25.667 0.43158-4.6118-2.5099-7.3572-7.0262-8.2532-4.5939-0.91138-8.0128 0.75678-9.4863 5.179-1.1453 3.4368-1.8734 7.0678-2.3278 10.671-3.0164 23.912-5.991 47.83-8.796 71.767-0.9447 8.0621-1.8298 16.192-1.7417 24.28 0.028747 2.6385 2.6694 6.2031 5.1151 7.6255 3.2532 1.8921 7.1348 0.80737 10.267-3.0841m-94.29-51.304c-0.607-7.8937-0.44348-15.95-2.0669-23.629-1.28-6.0547-5.3724-11.865-11.856-13.095-14.695-2.7892-26.919 3.9484-38.125 12.378-3.3585 2.5261-3.05 6.9845-0.60187 10.482 2.2819 3.2602 5.5463 2.2996 8.5715 1.0527 2.3013-0.94849 4.4839-2.1884 6.7944-3.1105 3.6976-1.4758 7.3776-3.1023 11.212-4.1006 4.3683-1.1373 8.1846 2.1817 9.2542 7.4702 0.97247 4.8083-0.79242 7.823-5.6072 8.7452-4.0728 0.78003-8.2294 1.1867-12.367 1.5501-7.3141 0.64233-13.972 2.986-19.859 7.3696-9.6072 7.1534-11.54 19.384-4.5421 27.5 8.4649 9.8173 19.394 15.633 31.602 19.009 10.702 2.9597 16.762-0.88226 19.788-11.56 0.13586-0.47949 0.2395-0.96936 0.33441-1.459 2.4364-12.566 4.8697-25.133 7.4699-38.603m-342.88-20.757c-0.80237-3.8942-2.4296-7.1293-7.0538-6.9435-4.481 0.18018-6.8717 3.1443-7.7961 7.202-0.69809 3.0644-1.0185 6.2311-1.3024 9.3708-1.0786 11.929-2.0823 23.866-3.097 35.801-0.47885 5.6323-1.054 11.261-1.3277 16.904-0.17111 3.5277 0.84482 6.7306 4.7584 7.8333 3.8441 1.0832 6.9078-0.32422 8.9992-3.6199 1.5992-2.5201 2.8873-5.2354 4.4305-7.7935 6.861-11.373 13.63-22.806 20.749-34.018 1.7191-2.7076 4.6418-4.6511 7.011-6.9459 0.59503 0.30432 1.1901 0.60864 1.7851 0.91296-0.23843 5.2203-0.38354 10.447-0.73596 15.66-0.6055 8.9557-1.3011 17.906-2.0403 26.852-0.29392 3.5568 1.7433 5.1599 4.7117 6.0347 6.8151 2.0085 13.028-2.8042 13.311-9.8429 0.33994-8.4613 1.3192-16.898 1.6367-25.359 0.34695-9.2496 1.3946-18.686 0.047851-27.729-1.4992-10.068-9.4138-12.956-17.747-6.9283-6.1043 4.4152-11.177 10.296-16.515 15.715-2.7218 2.7634-5.0152 5.9489-7.755 9.2479-0.75382-1.2507-1.1923-1.6448-1.2091-2.0561-0.26541-6.4771-0.47656-12.956-0.8606-20.297m382.87 53.025c-3.4244 3.2142-7.3147 3.4334-11.617 2.0715-2.3555-0.74554-4.8428-1.2929-7.3008-1.446-3.8066-0.23712-6.9343 1.017-7.9141 5.237-1.0103 4.3511-0.26856 8.1954 4.2618 9.9519 4.0056 1.553 8.1865 2.8931 12.412 3.595 12.309 2.0449 23.915-4.1238 28.86-14.941 4.8013-10.504 2.0356-20.452-8.3466-29.163-3.5646-2.991-7.4874-5.5516-11.189-8.3845-3.0589-2.3412-6.7488-4.7714-4.7468-9.3163 1.9061-4.3269 6.1771-4.2812 9.9495-3.1605 4.248 1.262 8.2855 3.2452 12.392 4.9695 5.8141 2.4416 11.921-1.1331 11.203-7.2972-0.37305-3.2026-2.6176-7.0032-5.2028-8.9908-11.178-8.5936-23.351-8.0799-35.861-2.7867-15.044 6.3654-16.643 26.472-4.8713 34.756 3.399 2.3921 6.7029 4.9263 9.9673 7.5009 2.9948 2.362 6.1372 4.6207 8.7389 7.3743 2.8066 2.9706 3.5673 6.4225-0.73468 10.03m-302.51-43.496c1.664-4.6426 0.5015-8.158-4.1338-10.245-4.1068-1.8494-8.7898-0.71246-11.362 3.4069-1.7164 2.7487-2.9987 5.9666-3.644 9.1433-1.2207 6.0091-1.9331 12.128-2.6937 18.222-1.3169 10.55-2.7762 21.094-3.6618 31.684-0.60379 7.2205 3.2867 10.001 10.344 8.1879 6.7208-1.7267 8.59-4.6853 9.37-12.182 1.6466-15.827 3.7073-31.61 5.7812-48.217m-7.5555-39.796c-1.8321 1.3737-4.0206 2.457-5.4241 4.1797-3.2134 3.9443-2.6388 9.0573 0.9007 11.518 3.1634 2.1995 8.9252 1.6478 12.656-1.2304 3.5372-2.7291 4.2749-6.3495 2.5985-10.24-1.8795-4.3621-5.6259-5.2888-10.731-4.2271z" fill="#F3E8E9"/>
<path d="m708.51 291.46c20.637-33.66 41.052-67.036 61.451-100.42 1.2148-1.9881 2.2793-4.0674 3.46-6.077 5.2375-8.914 12.796-11.386 20.927-6.8632 8.1966 4.5591 10.72 13.126 5.7714 21.806-11.545 20.252-23.084 40.52-35.17 60.451-26.548 43.781-55.768 85.725-88.368 125.23-15.838 19.195-33.043 37.081-54.089 50.786-29.68 19.327-62.497 25.772-97.338 23.028-42.337-3.334-81.985-16.991-121.1-32.457-52.897-20.914-103.55-46.581-153.79-73.072-8.7234-4.5988-10.989-11.887-6.7783-20.082 4.3327-8.4319 12.722-11.218 21.629-6.6692 18.983 9.6937 37.706 19.902 56.771 29.429 48.613 24.291 98.105 46.529 150.4 61.863 23.249 6.8171 46.876 10.997 71.318 10.767 31.077-0.29355 57.188-11.931 80.24-32.033 26.649-23.239 46.688-51.94 67.116-80.335 5.9321-8.2457 11.563-16.708 17.557-25.352z" fill="#F3E8E9"/>
<path d="m600.09 734.39c0.027466 8.7457 0.027466 17.033 0.027466 25.55 0.85712-1.0086 2.0796-2.3563 3.2014-3.7833 4.3168-5.4916 8.1887-11.402 12.987-16.431 9.0027-9.4356 18.422-6.879 21.548 5.7985 1.5253 6.186 1.9024 12.655 2.9571 20.112 3.2329-3.5497 6.1363-6.4075 8.6527-9.5728 4.5568-5.7317 8.8116-11.703 13.35-17.45 1.314-1.6639 2.9831-3.2145 4.8036-4.2803 5.8623-3.4322 11.457-0.98181 12.098 5.7238 0.5816 6.0806 0.40387 12.294-0.061218 18.401-0.89734 11.784-2.2036 23.538-3.4103 35.297-0.27124 2.6431-0.59711 5.3214-1.3048 7.8704-1.3799 4.97-5.5762 7.835-10.473 7.4139-5.2924-0.4552-7.2233-4.1794-7.0567-8.6546 0.29608-7.9503 1.301-15.872 1.9355-23.812 0.31036-3.8844 0.45459-7.782 0.67401-11.674-0.50635-0.22241-1.0128-0.44482-1.5192-0.66724-1.6914 2.0432-3.6439 3.925-5.0253 6.1598-4.1105 6.65-7.6271 13.699-12.112 20.073-2.589 3.6799-6.2061 7.0755-10.116 9.2244-2.3951 1.3164-7.1024 1.1733-9.1547-0.40991-2.0347-1.5696-2.9816-5.8412-2.7507-8.7986 0.55463-7.106 2.2661-14.114 3.1341-21.207 0.44391-3.6273 0.077759-7.3536 0.077759-11.035-0.7431-0.25793-1.4861-0.51587-2.2292-0.77386-1.9357 2.2775-4.3135 4.3106-5.7303 6.8747-6.1044 11.047-11.94 22.243-17.845 33.401-2.1409 4.045-4.257 7.9265-9.6827 8.2507-6.7059 0.4007-8.9975-1.4322-8.6693-8.1431 0.46344-9.4775 1.2767-18.938 1.9288-28.406 0.59436-8.6316 1.0416-17.276 1.818-25.891 0.35522-3.9409 0.85114-8.0024 2.1772-11.688 1.5205-4.2251 4.8937-6.7158 9.7836-5.9583 4.5679 0.70752 5.5743 4.1608 5.9861 8.4856z" fill="#1462D3"/>
<path d="m327.03 794.04c-1.7835 4.1748-3.3344 8.0421-5.1706 11.769-2.9795 6.047-7.4677 8.0144-12.931 5.9114-4.7852-1.842-5.9685-5.1249-3.44-12.104 9.1806-25.34 18.579-50.602 27.842-75.913 2.5145-6.8713 4.6263-13.897 7.3414-20.685 1.3335-3.3336 2.9587-7.2061 5.6624-9.1576 2.8827-2.0807 7.2358-3.0738 10.871-2.9045 3.8911 0.18134 4.4137 4.2544 5.009 7.6486 5.1711 29.482 10.388 58.957 15.652 88.423 0.96515 5.4025 2.3179 10.736 3.2834 16.138 0.83795 4.6885-2.1757 8.3699-7.7133 9.8235-4.7233 1.2397-7.8594-0.004761-9.2618-5.0114-1.8751-6.6943-3.0677-13.606-4.1682-20.485-1.9761-12.354-1.8252-11.286-14.355-10.928-12.189 0.3479-16.151 7.3049-18.622 17.476m12.181-33.089c3.2434-0.078613 6.5117 0.065185 9.7235-0.29553 3.5329-0.39667 5.1823-2.4201 4.4766-6.2185-1.1522-6.2016-2.0204-12.456-3.1678-18.658-0.2644-1.4291-1.1745-2.7386-2.4037-5.4753-4.6401 10.596-7.6616 19.962-8.6286 30.648z" fill="#1462D3"/>
<path d="m545.74 807.85c-8.1785 1.4651-15.956 3.3301-23.832 3.9599-6.3713 0.50952-10.359-3.2947-10.973-8.6114-0.61319-5.3096 1.9681-8.7475 8.6323-10.214 4.8444-1.0663 9.903-1.1218 14.814-1.941 2.5746-0.42957 5.2859-1.1077 7.5056-2.4075 8.329-4.8769 8.1926-15.087-0.30957-19.486-4.2601-2.204-8.8694-3.7718-13.401-5.4046-14.158-5.1007-22.743-14.822-24.416-29.927-1.6947-15.299 4.7976-26.701 17.462-35.031 10.977-7.2203 22.081-7.9339 33.264-0.86395 7.4923 4.7366 10.95 12.516 12.956 20.609 0.70648 2.8497-1.0402 6.9009-2.8285 9.6472-3.3055 5.0763-8.1821 4.8854-11.807 0.030334-2.3869-3.1964-4.304-6.7562-6.8022-9.8542-4.4413-5.5079-8.3964-6.2042-14.455-3.0269-6.7103 3.519-9.8879 9.4222-8.2289 15.395 1.5624 5.6251 5.075 9.7664 10.246 12.283 3.871 1.8842 7.8926 3.5939 12.018 4.795 12.004 3.4951 20.139 11.026 21.808 23.401 1.7665 13.097-3.0825 24.234-13.98 32.239-2.2632 1.6625-4.8668 2.8619-7.6719 4.4084z" fill="#1462D3"/>
<path d="m848.71 811.64c-2.907 3.5731-6.7886 4.6578-10.042 2.7657-2.4457-1.4224-5.0863-4.987-5.1151-7.6255-0.088074-8.088 0.797-16.218 1.7417-24.28 2.8051-23.938 5.7796-47.855 8.796-71.767 0.45441-3.6027 1.1826-7.2338 2.3278-10.671 1.4736-4.4222 4.8925-6.0904 9.4863-5.179 4.5163 0.896 7.4578 3.6414 7.0262 8.2532-0.80359 8.5862-2.255 17.111-3.3912 25.667-0.25568 1.9254-0.32422 3.8757-0.59534 7.273 3.733-1.4023 6.6874-2.1503 9.2908-3.5507 13.809-7.4288 20.945-4.3284 24.246 11.16 1.1361 5.331 1.6379 10.886 1.6788 16.344 0.098571 13.146-0.16827 26.297-0.47186 39.442-0.068238 2.9544-0.56567 5.9916-1.4371 8.8141-1.4798 4.7928-5.0213 6.56-10.151 5.8002-4.7209-0.69928-5.7303-3.9515-5.6851-7.9503 0.156-13.815 0.35858-27.629 0.51758-41.444 0.028747-2.4962 0.22839-5.0431-0.18079-7.4775-0.44965-2.675-1.2764-7.336-2.3532-7.4574-2.8048-0.31634-6.2494 0.75507-8.7031 2.3823-8.7444 5.799-10.869 15.037-11.841 24.727-0.88019 8.7758-1.7324 17.557-2.8141 26.308-0.34125 2.7604-1.3841 5.4341-2.3311 8.4659z" fill="#1462D3"/>
<path d="m754.56 760.47c-2.517 13.018-4.9503 25.585-7.3867 38.151-0.09491 0.48968-0.19855 0.97955-0.33441 1.459-3.0261 10.677-9.0866 14.519-19.788 11.56-12.208-3.3763-23.137-9.192-31.602-19.009-6.9984-8.1165-5.0651-20.347 4.5421-27.5 5.8871-4.3836 12.545-6.7273 19.859-7.3696 4.1378-0.3634 8.2944-0.77008 12.367-1.5501 4.8148-0.92224 6.5797-3.9369 5.6072-8.7452-1.0696-5.2885-4.8859-8.6075-9.2542-7.4702-3.8344 0.99829-7.5144 2.6248-11.212 4.1006-2.3105 0.92218-4.4931 2.162-6.7944 3.1105-3.0252 1.2468-6.2897 2.2075-8.5715-1.0527-2.4481-3.4977-2.7566-7.9562 0.60187-10.482 11.207-8.4291 23.43-15.167 38.125-12.378 6.4839 1.2307 10.576 7.0407 11.856 13.095 1.6234 7.6789 1.4599 15.736 1.9837 24.081m-42.458 24.832c0.61835 0.55505 1.1675 1.2244 1.866 1.647 5.1697 3.1279 11.039 6.9387 16.683 4.481 5.3599-2.334 3.889-9.3068 4.7318-14.453 0.026794-0.16351 0.010498-0.33398 0.035278-0.49805 0.46466-3.0739-1.1445-4.5099-3.9525-4.2894-5.4489 0.42804-11.023 0.56781-16.274 1.8966-7.1744 1.8155-7.7488 4.3116-3.0896 11.216z" fill="#1462D3"/>
<path d="m411.84 739.69c0.30383 6.9099 0.51498 13.389 0.7804 19.866 0.016846 0.41132 0.45532 0.80536 1.2091 2.0561 2.7398-3.2991 5.0332-6.4846 7.755-9.2479 5.3379-5.4193 10.411-11.3 16.515-15.715 8.3333-6.0273 16.248-3.1392 17.747 6.9283 1.3467 9.0438 0.2991 18.48-0.047851 27.729-0.31741 8.4615-1.2967 16.898-1.6367 25.359-0.28278 7.0387-6.4958 11.851-13.311 9.8429-2.9684-0.87482-5.0056-2.4779-4.7117-6.0347 0.7392-8.9459 1.4348-17.896 2.0403-26.852 0.35242-5.2126 0.49753-10.439 0.73596-15.66-0.59506-0.30432-1.1901-0.60864-1.7851-0.91296-2.3692 2.2948-5.2919 4.2382-7.011 6.9459-7.1181 11.211-13.888 22.644-20.749 34.018-1.5432 2.5581-2.8313 5.2734-4.4305 7.7935-2.0915 3.2957-5.1552 4.7031-8.9992 3.6199-3.9136-1.1027-4.9295-4.3056-4.7584-7.8333 0.27365-5.643 0.84885-11.272 1.3277-16.904 1.0147-11.935 2.0184-23.871 3.097-35.801 0.28387-3.1396 0.60428-6.3064 1.3024-9.3708 0.92438-4.0577 3.3151-7.0218 7.7961-7.202 4.6242-0.18579 6.2515 3.0493 7.134 7.3746z" fill="#1462D3"/>
<path d="m794.9 792.03c4.0286-3.3516 3.2678-6.8035 0.46124-9.7741-2.6017-2.7536-5.7441-5.0123-8.7389-7.3743-3.2644-2.5745-6.5683-5.1088-9.9673-7.5009-11.772-8.2845-10.173-28.391 4.8713-34.756 12.51-5.2932 24.683-5.8069 35.861 2.7867 2.5852 1.9876 4.8297 5.7883 5.2028 8.9908 0.7179 6.1642-5.389 9.7388-11.203 7.2972-4.1061-1.7243-8.1436-3.7075-12.392-4.9695-3.7723-1.1207-8.0434-1.1664-9.9495 3.1605-2.002 4.5449 1.6879 6.975 4.7468 9.3163 3.7012 2.8329 7.6239 5.3936 11.189 8.3845 10.382 8.7112 13.148 18.66 8.3466 29.163-4.9445 10.817-16.551 16.986-28.86 14.941-4.2251-0.70196-8.406-2.0421-12.412-3.595-4.5304-1.7565-5.2722-5.6008-4.2618-9.9519 0.9798-4.22 4.1075-5.4741 7.9141-5.237 2.4579 0.15314 4.9453 0.7005 7.3008 1.446 4.3028 1.3619 8.1931 1.1427 11.891-2.327z" fill="#1462D3"/>
<path d="m492.02 749.19c-1.9824 16.204-4.043 31.988-5.6896 47.814-0.77994 7.4965-2.6492 10.455-9.37 12.182-7.0576 1.8131-10.948-0.96747-10.344-8.1879 0.88553-10.59 2.3449-21.133 3.6618-31.684 0.76065-6.0939 1.4731-12.213 2.6937-18.222 0.64532-3.1768 1.9276-6.3947 3.644-9.1433 2.5724-4.1194 7.2554-5.2563 11.362-3.4069 4.6353 2.0874 5.7978 5.6028 4.0422 10.648z" fill="#1463D3"/>
<path d="m484.93 708.91c4.739-0.97278 8.4854-0.046082 10.365 4.316 1.6764 3.8907 0.93869 7.511-2.5985 10.24-3.7304 2.8782-9.4921 3.4299-12.656 1.2304-3.5395-2.4607-4.1141-7.5737-0.9007-11.518 1.4036-1.7228 3.5921-2.806 5.7898-4.2687z" fill="#1664D4"/>
<path d="m339.04 760.56c1.1373-10.296 4.1588-19.662 8.7989-30.258 1.2292 2.7366 2.1393 4.0462 2.4037 5.4753 1.1475 6.2025 2.0156 12.457 3.1678 18.658 0.70575 3.7984-0.94366 5.8218-4.4766 6.2185-3.2117 0.36072-6.4801 0.21692-9.8938-0.0943z" fill="#EDE4E8"/>
<path d="m711.84 785.04c-4.3991-6.6382-3.8247-9.1343 3.3497-10.95 5.2513-1.3288 10.825-1.4686 16.274-1.8966 2.8079-0.22052 4.4171 1.2155 3.9525 4.2894-0.02478 0.16406-0.008484 0.33453-0.035278 0.49805-0.84284 5.1461 0.62811 12.119-4.7318 14.453-5.644 2.4576-11.513-1.3531-16.683-4.481-0.69849-0.42261-1.2476-1.0919-2.1261-1.9129z" fill="#EFE5E8"/>
</svg>
